<?xml version="1.0" encoding="UTF-8"?>
<svg width="600" height="500" viewBox="0 0 600 500" fill="none" xmlns="http://www.w3.org/2000/svg">
    <!-- 背景装饰 -->
    <circle cx="300" cy="250" r="200" fill="rgba(255,255,255,0.03)"/>
    <circle cx="300" cy="250" r="150" fill="rgba(255,255,255,0.05)"/>
    
    <!-- 主要图形：书本和显示器的组合 -->
    <g transform="translate(150,100)">
        <!-- 显示器 -->
        <rect x="50" y="50" width="200" height="150" rx="10" fill="#2b90d9"/>
        <rect x="60" y="60" width="180" height="130" rx="5" fill="#1f232b"/>
        
        <!-- 代码线条 -->
        <rect x="80" y="80" width="100" height="4" rx="2" fill="#4a9ced"/>
        <rect x="80" y="100" width="140" height="4" rx="2" fill="#666"/>
        <rect x="80" y="120" width="80" height="4" rx="2" fill="#666"/>
        <rect x="80" y="140" width="120" height="4" rx="2" fill="#4a9ced"/>
        
        <!-- 显示器支架 -->
        <path d="M140 200L160 220L190 220L210 200" fill="#2b90d9"/>
        <rect x="160" y="220" width="30" height="10" fill="#2b90d9"/>
        
        <!-- 漂浮的书本 -->
        <g transform="rotate(-15)">
            <path d="M250 100L350 80L350 180L250 200Z" fill="#2b90d9"/>
            <path d="M250 100L260 95L360 75L350 80Z" fill="#1f232b"/>
            <path d="M350 180L360 175L360 75L350 80Z" fill="#1f232b"/>
        </g>
        
        <!-- 漂浮的符号 -->
        <g class="floating-symbols">
            <circle cx="50" cy="50" r="5" fill="#4a9ced"/>
            <rect x="280" y="150" width="10" height="10" transform="rotate(45)" fill="#4a9ced"/>
            <path d="M320 100L330 90L340 100L330 110Z" fill="#4a9ced"/>
        </g>
    </g>
    
    <!-- 装饰性曲线 -->
    <path d="M50,400 Q150,350 250,400 T450,400" stroke="rgba(255,255,255,0.1)" stroke-width="2" fill="none"/>
    <path d="M100,420 Q200,370 300,420 T500,420" stroke="rgba(255,255,255,0.1)" stroke-width="2" fill="none"/>
    
    <!-- 动画定义 -->
    <style>
        @keyframes float {
            0% { transform: translateY(0px); }
            50% { transform: translateY(-10px); }
            100% { transform: translateY(0px); }
        }
        .floating-symbols {
            animation: float 3s ease-in-out infinite;
        }
    </style>
</svg> 